<svg width="164" height="164" viewBox="0 0 164 164" fill="none" xmlns="http://www.w3.org/2000/svg">
<path d="M83.84 10.2163L82 5.89627L80.16 10.2163L71.067 31.5644L54.0771 15.7603L50.6391 12.5622L50.7152 17.2572L51.0915 40.458L29.1424 32.9308L24.7008 31.4075L26.6799 35.6656L36.4603 56.7076L13.3472 58.7586L8.67 59.1736L12.2099 62.2586L29.7033 77.5034L9.42264 88.778L5.31866 91.0595L9.80731 92.4379L31.9889 99.2496L18.0474 117.798L15.2262 121.552L19.8875 120.985L42.9219 118.186L37.7302 140.802L36.6796 145.378L40.7074 142.965L60.6119 131.039L65.0676 153.811L65.9692 158.419L68.6672 154.576L82 135.585L95.3328 154.576L98.0308 158.419L98.9324 153.811L103.388 131.039L123.293 142.965L127.32 145.378L126.27 140.802L121.078 118.186L144.113 120.985L148.774 121.552L145.953 117.798L132.011 99.2496L154.193 92.4379L158.681 91.0595L154.577 88.778L134.297 77.5034L151.79 62.2586L155.33 59.1736L150.653 58.7586L127.54 56.7076L137.32 35.6656L139.299 31.4075L134.858 32.9308L112.909 40.458L113.285 17.2572L113.361 12.5622L109.923 15.7603L92.933 31.5644L83.84 10.2163Z" fill="white" stroke="white" stroke-width="4"/>
</svg>
